<svg version="1.1" id="Layer_1" xmlns="http://www.w3.org/2000/svg" xmlns:xlink="http://www.w3.org/1999/xlink" x="0px" y="0px"
	 width="100%" viewBox="0 0 522 255" enable-background="new 0 0 522 255" xml:space="preserve">
<path fill="#000000" opacity="1.000000" stroke="none" 
	d="
M390.000000,256.000000 
	C260.041656,256.000000 130.583313,256.000000 1.062488,256.000000 
	C1.062488,171.069046 1.062488,86.138023 1.062488,1.103503 
	C175.000000,1.103503 349.000000,1.103503 522.978516,1.103503 
	C522.978516,86.083275 522.978516,171.041641 522.978516,256.000000 
	C478.804718,256.000000 434.652374,256.000000 390.000000,256.000000 
M355.413666,114.016754 
	C355.225220,114.304214 355.036774,114.591667 354.742584,114.895477 
	C354.742584,114.895477 354.756805,115.001503 354.184784,115.197639 
	C353.847748,116.111176 353.510742,117.024704 353.095306,118.717506 
	C353.025787,119.493317 352.956268,120.269135 352.996338,121.020721 
	C352.996338,121.020721 352.972229,120.911110 352.194153,120.969055 
	C351.897858,121.073814 351.413513,121.099937 351.332123,121.294571 
	C346.631561,132.533737 347.232758,143.660889 352.273834,154.604767 
	C352.637543,155.394348 354.054626,155.698685 355.044739,155.984253 
	C355.044739,155.984253 354.800446,155.921051 354.356323,156.532562 
	C354.887634,157.050308 355.418945,157.568039 356.172791,158.727295 
	C359.428558,161.505920 362.684296,164.284531 366.308624,167.648788 
	C367.553864,168.128937 368.799072,168.609085 370.009857,168.999680 
	C370.009857,168.999680 369.920258,169.034058 369.980438,169.860916 
	C376.269653,173.494370 383.100616,172.023972 389.679535,171.527756 
	C392.890930,171.285538 395.967804,169.259720 399.822571,168.048309 
	C402.906555,165.721405 405.990540,163.394501 409.845032,161.013062 
	C411.246277,159.736526 413.454681,158.636292 413.784607,157.125732 
	C414.033112,155.988129 412.154053,153.898346 410.738495,152.968399 
	C404.350800,148.771957 397.744659,147.394913 390.203094,150.645111 
	C387.287933,151.901474 383.347809,151.320801 379.982849,150.832047 
	C376.932861,150.389069 374.029999,148.933014 370.811127,147.268692 
	C370.241516,146.027191 369.671906,144.785690 368.786011,142.854767 
	C374.347595,142.854767 379.128662,142.854767 384.859924,142.997437 
	C390.932404,143.003113 397.006989,143.106674 403.076599,142.977783 
	C406.725281,142.900314 410.366272,142.460480 414.895599,142.069885 
	C417.380310,135.751923 416.492889,129.368652 414.052002,123.484528 
	C407.518799,107.735283 396.720459,101.431137 379.128021,102.007935 
	C371.645294,101.810760 365.187378,104.135918 359.831116,109.729881 
	C359.831116,109.729881 359.805878,109.965370 359.123993,109.953201 
	C358.393250,110.912155 357.662537,111.871109 356.974854,112.936531 
	C356.974854,112.936531 356.908508,112.842941 356.409851,113.030624 
	C356.220703,113.321884 356.031586,113.613144 355.912476,113.907784 
	C355.912476,113.907784 355.911377,113.837700 355.413666,114.016754 
M139.051941,164.966614 
	C139.051941,164.966614 139.117004,164.954575 139.036102,164.234192 
	C138.020050,163.426636 137.003998,162.619064 136.004730,161.111588 
	C128.811142,150.217651 121.617554,139.323715 114.529732,128.589966 
	C117.162117,125.179291 119.866127,122.072792 122.128357,118.672386 
	C129.775192,107.178268 131.112106,94.042793 132.166687,80.708191 
	C133.122971,68.616722 138.293289,58.064953 147.655777,50.309772 
	C157.094559,42.491409 168.284531,39.577118 180.709503,39.920177 
	C191.984802,40.231491 201.064072,44.710144 209.165787,51.823097 
	C216.876266,58.592583 220.843384,67.570763 223.162476,78.172844 
	C222.980240,86.848511 223.094940,86.965034 231.952728,86.963394 
	C234.446945,86.962929 237.099472,87.469040 239.384659,86.773895 
	C241.173035,86.229874 243.856644,84.153412 243.821396,82.819145 
	C243.599564,74.421539 242.559387,66.083885 237.637253,58.105831 
	C234.349075,53.283142 231.060883,48.460453 227.361572,43.153122 
	C221.386200,33.549366 212.968872,27.364752 201.948502,25.073034 
	C201.948502,25.073034 202.078934,24.989269 202.021606,24.198677 
	C196.898697,20.605988 191.197388,19.452847 184.122833,19.998972 
	C180.635788,19.995241 177.143982,19.871161 173.662506,20.008596 
	C158.530930,20.605927 145.066620,25.330473 133.705063,36.715427 
	C130.130188,41.430225 126.555321,46.145020 122.410332,51.163334 
	C121.949837,52.018925 121.489349,52.874519 120.853668,53.772728 
	C120.853668,53.772728 120.880669,53.950981 120.367844,54.353764 
	C119.619026,55.949799 118.870209,57.545830 117.980354,59.337605 
	C117.980354,59.337605 118.073776,59.560040 117.462791,60.041340 
	C116.629005,61.591000 115.271729,63.068501 115.046547,64.702057 
	C113.605934,75.152519 112.414078,85.637268 111.006508,96.856087 
	C110.298553,98.856163 109.749496,100.930374 108.856598,102.844177 
	C103.466675,114.396683 94.714767,122.216530 82.025970,126.145653 
	C81.651489,126.106697 81.277016,126.067741 81.010674,126.109039 
	C81.010674,126.109039 81.091637,126.001427 81.030975,125.063530 
	C81.346397,112.410919 81.841095,99.757278 81.768089,87.106911 
	C81.758080,85.373291 79.052109,82.336021 77.371811,82.171227 
	C71.648460,81.609894 65.825531,82.063705 59.145432,82.020370 
	C58.763828,83.098991 58.051399,84.176880 58.048973,85.256348 
	C57.987274,112.704781 57.987709,140.153412 58.044647,167.601868 
	C58.046909,168.692520 58.710293,169.781815 59.988014,170.989258 
	C66.897606,170.989258 73.807198,170.989258 81.292419,170.989258 
	C81.292419,162.420486 81.292419,154.182373 81.944252,145.663925 
	C86.246643,144.165649 90.481247,142.383560 94.889992,141.330612 
	C96.337013,140.985016 98.979347,142.039566 99.805634,143.291595 
	C104.728561,150.751099 109.279709,158.455963 114.072258,166.753418 
	C114.656265,167.851654 115.240280,168.949875 116.289253,170.807770 
	C124.062508,170.869141 131.836151,170.901474 139.608795,171.007065 
	C142.466522,171.045883 142.682159,169.976318 141.044937,167.277435 
	C140.387375,166.486176 139.729828,165.694901 139.051941,164.966614 
M288.962067,107.947189 
	C288.962067,107.947189 288.953705,107.881897 288.256104,107.982635 
	C285.242340,111.491432 282.228546,115.000237 278.888702,119.239685 
	C273.324036,132.140076 273.162476,144.608459 281.672089,156.486450 
	C289.084900,166.833527 299.782440,171.161697 311.691620,168.128677 
	C315.520386,167.153564 319.154053,165.412354 322.973511,164.877243 
	C322.635620,166.277710 322.011322,167.677246 322.006683,169.078812 
	C321.978027,177.728607 322.088959,186.378860 321.981934,195.802155 
	C320.043030,200.608978 318.620087,205.713699 316.053986,210.158401 
	C311.244873,218.488098 303.269958,223.274933 293.884430,227.119873 
	C291.557373,227.085480 289.227570,227.110947 286.903809,227.004532 
	C281.658142,226.764297 276.415497,226.458923 270.434021,225.953796 
	C257.908051,221.287964 248.926651,213.117249 244.989517,199.218231 
	C244.657944,196.354935 244.602463,193.417099 243.859390,190.664902 
	C243.560608,189.558212 241.822250,188.227402 240.619049,188.095779 
	C237.365921,187.739853 234.039703,187.827240 230.759399,188.022705 
	C228.540756,188.154907 226.350754,188.767990 223.986389,190.020172 
	C224.929153,195.292374 225.408600,200.699722 226.899750,205.811966 
	C231.777985,222.536301 242.033783,235.171890 257.887634,242.420029 
	C270.844757,248.343796 284.741669,250.206818 298.499695,245.599716 
	C303.803833,243.823563 310.286926,243.387207 314.527679,238.078888 
	C321.303040,235.864380 325.506622,230.775925 329.046112,225.028885 
	C329.046112,225.028885 329.052338,225.099152 329.618103,224.908966 
	C330.013519,224.090057 330.408936,223.271164 331.108276,221.762680 
	C337.164124,213.176331 341.053131,203.772858 341.994781,192.239395 
	C342.165955,164.066345 342.351379,135.893341 342.446228,107.720047 
	C342.449341,106.780548 341.535980,105.837952 341.033875,104.960747 
	C341.033875,104.960747 341.096771,104.941101 340.647034,104.184914 
	C334.483215,104.184914 328.319366,104.184914 321.531860,104.184914 
	C322.152039,105.851746 322.624969,107.122849 322.536041,108.790268 
	C321.104065,108.204147 319.594940,107.756546 318.252686,107.009232 
	C310.031921,102.432106 301.705017,101.797470 292.436188,106.040749 
	C291.256683,106.671562 290.077209,107.302376 288.962067,107.947189 
M446.766083,106.728432 
	C446.766083,106.728432 446.757294,107.053619 446.039185,106.966232 
	C444.389954,105.990051 442.740723,105.013870 440.653717,103.270836 
	C434.763824,103.232475 428.873932,103.194107 422.185669,103.325798 
	C421.792786,104.499741 421.061462,105.672493 421.057343,106.847786 
	C420.985718,127.322952 420.988281,147.798477 421.051941,168.273682 
	C421.054688,169.162537 421.797119,170.049088 422.437714,171.086670 
	C422.437714,171.086670 422.722290,171.032593 423.036224,171.523285 
	C423.425995,171.359283 423.815765,171.195267 425.115570,171.063431 
	C431.075958,170.792709 437.036316,170.521988 443.715118,169.817444 
	C443.760162,157.486084 443.805206,145.154709 444.073395,132.159088 
	C448.115234,122.058884 457.151642,122.878159 465.745056,122.922813 
	C465.745056,115.975075 465.745056,109.622253 465.745056,102.948418 
	C462.999817,102.948418 460.545502,102.948418 457.748840,102.230911 
	C453.142517,101.238159 449.870789,103.403717 446.766083,106.728432 
M169.972809,167.075485 
	C170.362091,155.057327 170.751373,143.039154 171.726135,130.690430 
	C174.923538,125.555374 179.291946,122.628014 185.597977,123.015282 
	C188.073578,123.167320 190.574356,122.909340 193.812042,122.565453 
	C194.500626,117.256615 195.330002,111.958061 195.719299,106.627365 
	C195.774872,105.866356 193.699478,104.949730 192.447372,103.941414 
	C192.447372,103.941414 192.221588,103.990097 191.926010,103.678108 
	C191.779861,103.390686 191.545532,103.239441 190.378815,103.009087 
	C181.794769,102.561928 176.159424,107.540962 170.976700,113.441811 
	C170.750763,113.699051 169.705170,113.236366 169.732391,112.634995 
	C170.490799,104.885635 168.976074,102.528290 163.479309,102.987206 
	C160.065887,103.272202 156.655090,103.923409 153.250076,103.878937 
	C149.924652,103.835518 148.918808,105.108414 148.978333,108.292007 
	C149.152161,117.592300 149.096268,126.896889 149.002853,137.088470 
	C149.001297,146.282104 148.956284,155.476151 149.041916,164.668961 
	C149.055832,166.163055 149.648315,167.651749 150.315948,169.877350 
	C156.389832,170.201752 162.462372,170.582611 168.540543,170.725464 
	C168.952423,170.735153 169.406403,168.953522 169.972809,167.075485 
M201.983948,148.864624 
	C202.830597,150.639481 203.526062,152.507431 204.551147,154.172455 
	C208.200043,160.099319 212.108368,165.804260 219.533401,168.811020 
	C226.104889,173.526260 233.571762,172.112686 240.801697,171.664780 
	C242.938232,171.532425 244.986313,169.972595 247.697861,168.767303 
	C252.053986,165.128510 257.356659,162.177032 260.590607,157.723373 
	C270.706787,143.791718 269.747742,125.078163 258.022003,112.781357 
	C249.219376,103.550049 237.399002,101.331367 224.806015,104.525505 
	C213.670349,107.349991 206.824631,114.898048 201.255615,125.172691 
	C200.830048,130.779785 200.190903,136.383087 200.091660,141.995956 
	C200.055618,144.034012 201.308624,146.094894 201.983948,148.864624 
z"/>
<path fill="#18509B" opacity="1.000000" stroke="none" 
	d="
M113.955673,166.078445 
	C109.279709,158.455963 104.728561,150.751099 99.805634,143.291595 
	C98.979347,142.039566 96.337013,140.985016 94.889992,141.330612 
	C90.481247,142.383560 86.246643,144.165649 81.194931,145.847870 
	C80.000694,147.693848 79.243851,149.342514 79.171867,151.020538 
	C78.987480,155.318420 78.980309,159.634262 79.145721,163.933548 
	C79.282188,167.480453 78.019966,169.127457 74.278389,168.946915 
	C69.320854,168.707718 64.348000,168.785995 59.329315,168.279480 
	C59.299854,139.992157 59.322800,112.153191 59.789185,84.254776 
	C64.698509,84.130920 69.179428,84.271118 73.626083,83.944717 
	C78.100113,83.616318 79.316406,85.544411 79.224274,89.759460 
	C78.996452,100.181808 79.063866,110.613876 79.235641,121.038361 
	C79.263069,122.702461 80.443985,124.347549 81.091637,126.001427 
	C81.091637,126.001427 81.010674,126.109039 81.147156,126.022484 
	C81.717636,126.029739 82.151634,126.123550 82.585625,126.217361 
	C94.714767,122.216530 103.466675,114.396683 108.856598,102.844177 
	C109.749496,100.930374 110.298553,98.856163 111.393478,96.290771 
	C112.481415,92.724258 113.335144,89.749146 113.853111,86.716682 
	C115.122299,79.286171 116.242188,71.830086 117.408615,64.382164 
	C117.659637,62.779377 117.853561,61.167652 118.073776,59.560040 
	C118.073776,59.560040 117.980354,59.337605 118.351990,59.070938 
	C119.442635,57.186508 120.161652,55.568745 120.880669,53.950981 
	C120.880669,53.950981 120.853668,53.772728 121.209999,53.651978 
	C122.037704,52.640759 122.509079,51.750294 122.980453,50.859821 
	C126.555321,46.145020 130.130188,41.430225 134.298584,36.475693 
	C137.155426,34.963657 139.505722,33.823235 141.667862,32.397469 
	C154.837082,23.713388 169.385986,20.364653 185.322342,21.205742 
	C191.125763,22.597614 196.602356,23.793444 202.078934,24.989269 
	C202.078934,24.989269 201.948502,25.073034 202.248978,25.121635 
	C210.957199,31.326080 219.364944,37.481922 227.772690,43.637764 
	C231.060883,48.460453 234.349075,53.283142 237.477081,58.635063 
	C237.481934,60.388550 237.562836,61.631233 237.826218,62.833946 
	C239.127914,68.777748 240.648026,74.681992 241.668808,80.672157 
	C241.875580,81.885521 240.349991,84.529579 239.470245,84.599800 
	C235.229630,84.938309 230.825317,85.133476 226.726852,84.241295 
	C225.412918,83.955269 224.872711,80.174545 223.938370,78.010048 
	C223.820984,77.738121 223.457367,77.572502 223.207855,77.357620 
	C220.843384,67.570763 216.876266,58.592583 209.165787,51.823097 
	C201.064072,44.710144 191.984802,40.231491 180.709503,39.920177 
	C168.284531,39.577118 157.094559,42.491409 147.655777,50.309772 
	C138.293289,58.064953 133.122971,68.616722 132.166687,80.708191 
	C131.112106,94.042793 129.775192,107.178268 122.128357,118.672386 
	C119.866127,122.072792 117.162117,125.179291 114.529732,128.589966 
	C121.617554,139.323715 128.811142,150.217651 135.999756,161.820404 
	C137.035507,163.337662 138.076248,164.146118 139.117004,164.954575 
	C139.117004,164.954575 139.051941,164.966614 138.890320,165.272644 
	C139.241074,166.391220 139.753464,167.203751 140.004974,168.385971 
	C132.165131,168.818207 124.586151,168.880753 116.891899,168.649261 
	C115.836311,167.596298 114.895996,166.837372 113.955673,166.078445 
z"/>
<path fill="#18509B" opacity="1.000000" stroke="none" 
	d="
M322.876953,164.021637 
	C319.154053,165.412354 315.520386,167.153564 311.691620,168.128677 
	C299.782440,171.161697 289.084900,166.833527 281.672089,156.486450 
	C273.162476,144.608459 273.324036,132.140076 279.318756,118.757248 
	C282.817108,114.810493 285.885406,111.346191 288.953674,107.881889 
	C288.953705,107.881897 288.962067,107.947189 289.258301,108.112976 
	C290.765656,107.563438 291.976807,106.848114 293.187958,106.132790 
	C301.705017,101.797470 310.031921,102.432106 318.252686,107.009232 
	C319.594940,107.756546 321.104065,108.204147 322.980560,108.234451 
	C325.036469,106.897636 326.595856,105.606125 328.269409,105.435692 
	C332.517914,105.003014 336.817596,105.072609 341.096771,104.941101 
	C341.096771,104.941101 341.033875,104.960747 340.915405,105.389374 
	C340.797638,133.069031 340.777130,160.320099 340.845337,187.570953 
	C340.850067,189.452347 341.516144,191.332092 341.874634,193.212616 
	C341.053131,203.772858 337.164124,213.176331 330.662964,222.204773 
	C329.829224,223.464279 329.440765,224.281723 329.052338,225.099152 
	C329.052338,225.099152 329.046112,225.028885 328.731689,224.987640 
	C323.575226,229.246643 318.733154,233.546875 313.891052,237.847092 
	C310.286926,243.387207 303.803833,243.823563 298.499695,245.599716 
	C284.741669,250.206818 270.844757,248.343796 257.887634,242.420029 
	C242.033783,235.171890 231.777985,222.536301 226.899750,205.811966 
	C225.408600,200.699722 224.929153,195.292374 224.467636,189.616608 
	C228.221481,189.272003 231.522797,189.630630 234.760025,189.320480 
	C239.752472,188.842148 242.959671,189.967819 243.032730,195.774338 
	C243.050934,197.219788 244.218964,198.650757 244.858459,200.088394 
	C248.926651,213.117249 257.908051,221.287964 270.979919,226.357376 
	C279.198242,230.688980 286.962402,229.608261 294.751160,227.186569 
	C303.269958,223.274933 311.244873,218.488098 316.053986,210.158401 
	C318.620087,205.713699 320.043030,200.608978 322.388855,195.208557 
	C323.181152,189.767090 323.871002,184.919174 323.870270,180.071365 
	C323.869476,174.721405 323.235291,169.371536 322.876953,164.021637 
M322.957062,135.667328 
	C322.594025,134.247940 322.344086,132.787796 321.850006,131.415604 
	C317.883514,120.399887 307.868042,116.430740 299.496216,123.122589 
	C294.259735,127.308273 292.174866,138.652618 295.324036,144.488358 
	C299.920746,153.006531 309.217010,154.731644 316.768341,148.693893 
	C320.771362,145.493225 322.057770,141.139648 322.957062,135.667328 
z"/>
<path fill="#19519B" opacity="1.000000" stroke="none" 
	d="
M219.129974,168.259430 
	C212.108368,165.804260 208.200043,160.099319 204.551147,154.172455 
	C203.526062,152.507431 202.830597,150.639481 202.102509,148.183609 
	C202.144379,139.924484 202.067688,132.346359 201.991013,124.768242 
	C206.824631,114.898048 213.670349,107.349991 224.806015,104.525505 
	C237.399002,101.331367 249.219376,103.550049 258.022003,112.781357 
	C269.747742,125.078163 270.706787,143.791718 260.590607,157.723373 
	C257.356659,162.177032 252.053986,165.128510 246.946014,168.806564 
	C237.124680,170.869858 228.110199,170.354874 219.129974,168.259430 
M228.898819,152.941223 
	C234.538193,155.854797 238.720047,152.578506 242.712128,149.419907 
	C249.847000,143.774673 249.139359,130.273148 242.915039,124.666153 
	C237.814987,120.071899 231.303177,119.745163 226.602768,123.098923 
	C220.409149,127.518112 217.803024,134.591995 219.594650,141.090195 
	C220.984009,146.129395 223.628983,150.034180 228.898819,152.941223 
z"/>
<path fill="#1A529C" opacity="1.000000" stroke="none" 
	d="
M409.074524,161.067581 
	C405.990540,163.394501 402.906555,165.721405 399.041779,167.976486 
	C396.329651,168.265228 394.403290,168.902313 392.466064,168.937424 
	C384.952667,169.073547 377.435822,169.018158 369.920258,169.034058 
	C369.920258,169.034058 370.009857,168.999680 369.821075,168.767410 
	C368.401550,168.044479 367.170807,167.553818 365.940063,167.063141 
	C362.684296,164.284531 359.428558,161.505920 355.988342,158.103882 
	C355.469391,156.960678 355.134918,156.440872 354.800446,155.921051 
	C354.800446,155.921051 355.044739,155.984253 354.877686,155.751511 
	C350.328339,146.047195 349.265259,136.279144 352.000580,126.140991 
	C352.460999,124.434532 352.655121,122.656227 352.972229,120.911110 
	C352.972229,120.911110 352.996338,121.020721 353.234222,120.876366 
	C353.980042,119.820572 354.487976,118.909134 355.198303,117.507545 
	C355.186096,116.345428 354.971436,115.673470 354.756775,115.001511 
	C354.756805,115.001503 354.742584,114.895477 355.230072,115.260040 
	C355.782166,115.028969 355.846771,114.433334 355.911377,113.837700 
	C355.911377,113.837700 355.912476,113.907784 356.330505,114.221962 
	C356.801849,113.971741 356.855164,113.407341 356.908508,112.842941 
	C356.908508,112.842941 356.974854,112.936531 357.152466,113.411163 
	C360.824585,112.312416 361.173981,111.759148 359.805878,109.965370 
	C359.805878,109.965370 359.831116,109.729881 359.798340,110.256638 
	C360.795990,110.569542 361.876465,110.487900 362.848633,110.120087 
	C368.574707,107.953613 374.275543,105.720497 380.422699,103.616165 
	C398.034363,104.315277 408.018616,111.916603 412.625427,128.198868 
	C412.824097,129.085068 413.126434,129.757492 413.460083,130.827118 
	C413.650085,132.815399 413.808746,134.406448 413.805786,136.162979 
	C413.752350,136.886780 413.860474,137.445114 413.935547,138.348465 
	C413.852997,139.384689 413.803436,140.075897 413.374329,140.916718 
	C406.315765,141.338562 399.633453,141.550278 392.959137,141.910278 
	C389.934509,142.073441 386.925720,142.530853 383.909760,142.854767 
	C379.128662,142.854767 374.347595,142.854767 368.786011,142.854767 
	C369.671906,144.785690 370.241516,146.027191 370.967316,147.938782 
	C376.958191,155.054291 386.415253,156.231430 395.159729,151.757065 
	C396.658813,150.990036 398.815002,150.005875 400.067169,150.537170 
	C403.940857,152.180817 407.524597,154.507828 411.357819,156.645889 
	C410.380096,158.539322 409.727295,159.803452 409.074524,161.067581 
M370.325165,127.527077 
	C369.313202,130.360901 370.794708,131.125229 373.271881,131.119064 
	C378.931549,131.104965 384.594147,131.223160 390.250031,131.076355 
	C394.229156,130.973068 394.815063,129.610031 392.737610,126.022438 
	C387.463928,116.915199 376.881989,117.338768 370.325165,127.527077 
z"/>
<path fill="#18509B" opacity="1.000000" stroke="none" 
	d="
M458.091187,102.948410 
	C460.545502,102.948418 462.999817,102.948418 465.745056,102.948418 
	C465.745056,109.622253 465.745056,115.975075 465.745056,122.922813 
	C457.151642,122.878159 448.115234,122.058884 443.702942,132.530838 
	C443.066101,133.117996 442.799744,133.333405 442.296387,133.704300 
	C442.108826,134.893173 442.158325,135.926544 442.156982,137.428589 
	C442.143097,147.276199 442.180084,156.655151 441.979248,166.343536 
	C440.964844,167.395508 440.178284,168.788269 439.413269,168.776535 
	C433.873047,168.691483 428.337158,168.322815 422.834778,167.573761 
	C422.878418,155.314560 422.836792,143.525208 422.912537,131.736618 
	C422.968994,122.952110 423.177338,114.168579 423.764893,105.375504 
	C429.797302,105.260101 435.382843,105.153809 441.098236,105.349678 
	C441.491577,108.176178 441.755005,110.700516 442.018433,113.224861 
	C442.575714,113.607292 443.132996,113.989731 443.690247,114.372169 
	C445.088379,112.413567 446.521790,110.477615 447.820557,108.455223 
	C447.929504,108.285583 447.133087,107.534546 446.757294,107.053619 
	C446.757294,107.053619 446.766083,106.728432 446.734650,107.248901 
	C450.499207,106.162384 454.295197,104.555389 458.091187,102.948410 
z"/>
<path fill="#174F9A" opacity="1.000000" stroke="none" 
	d="
M192.221588,103.990097 
	C192.221588,103.990097 192.447372,103.941414 192.626099,104.478516 
	C192.891113,110.956436 192.977402,116.897255 193.063675,122.838089 
	C190.574356,122.909340 188.073578,123.167320 185.597977,123.015282 
	C179.291946,122.628014 174.923538,125.555374 171.086029,131.044891 
	C169.948257,133.403015 169.047623,135.401306 169.020737,137.411255 
	C168.884369,147.605057 168.974747,157.801880 168.626862,168.195374 
	C162.343842,168.168152 156.419632,167.943222 150.514328,167.269287 
	C150.516571,156.552017 150.499893,146.283783 150.669327,135.645920 
	C150.960724,128.626740 151.110031,121.977516 151.161255,115.327545 
	C151.243057,104.708549 150.309448,105.769691 160.912704,105.728462 
	C168.458511,105.699127 168.458633,105.730247 169.041382,113.109039 
	C169.705170,113.236366 170.750763,113.699051 170.976700,113.441811 
	C176.159424,107.540962 181.794769,102.561928 191.103607,103.012695 
	C191.959457,103.340897 192.090515,103.665497 192.221588,103.990097 
z"/>
<path fill="#BFCCDE" opacity="1.000000" stroke="none" 
	d="
M409.459778,161.040314 
	C409.727295,159.803452 410.380096,158.539322 411.357819,156.645889 
	C407.524597,154.507828 403.940857,152.180817 400.067169,150.537170 
	C398.815002,150.005875 396.658813,150.990036 395.159729,151.757065 
	C386.415253,156.231430 376.958191,155.054291 371.092896,148.266235 
	C374.029999,148.933014 376.932861,150.389069 379.982849,150.832047 
	C383.347809,151.320801 387.287933,151.901474 390.203094,150.645111 
	C397.744659,147.394913 404.350800,148.771957 410.738495,152.968399 
	C412.154053,153.898346 414.033112,155.988129 413.784607,157.125732 
	C413.454681,158.636292 411.246277,159.736526 409.459778,161.040314 
z"/>
<path fill="#C7D3E2" opacity="1.000000" stroke="none" 
	d="
M413.753876,140.767105 
	C413.803436,140.075897 413.852997,139.384689 414.098877,138.182587 
	C414.185913,137.113632 414.076630,136.555573 413.967346,135.997513 
	C413.808746,134.406448 413.650085,132.815399 413.534790,130.493805 
	C413.295166,129.170547 413.012146,128.577820 412.729095,127.985077 
	C408.018616,111.916603 398.034363,104.315277 380.414490,103.391937 
	C379.974945,102.762283 379.983490,102.463257 379.994110,102.164284 
	C396.720459,101.431137 407.518799,107.735283 414.052002,123.484528 
	C416.492889,129.368652 417.380310,135.751923 414.385376,141.773163 
	C413.834717,141.239990 413.794312,141.003540 413.753876,140.767105 
z"/>
<path fill="#CDD7E3" opacity="1.000000" stroke="none" 
	d="
M423.318024,105.384613 
	C423.177338,114.168579 422.968994,122.952110 422.912537,131.736618 
	C422.836792,143.525208 422.878418,155.314560 422.676392,167.828140 
	C422.387024,169.347366 422.290985,170.142044 422.194977,170.936707 
	C421.797119,170.049088 421.054688,169.162537 421.051941,168.273682 
	C420.988281,147.798477 420.985718,127.322952 421.057343,106.847786 
	C421.061462,105.672493 421.792786,104.499741 422.629456,103.613968 
	C423.154816,104.396301 423.236420,104.890457 423.318024,105.384613 
z"/>
<path fill="#89A5C8" opacity="1.000000" stroke="none" 
	d="
M81.061310,125.532478 
	C80.443985,124.347549 79.263069,122.702461 79.235641,121.038361 
	C79.063866,110.613876 78.996452,100.181808 79.224274,89.759460 
	C79.316406,85.544411 78.100113,83.616318 73.626083,83.944717 
	C69.179428,84.271118 64.698509,84.130920 59.792950,83.964104 
	C59.582394,83.198586 59.811504,82.664291 60.040619,82.129997 
	C65.825531,82.063705 71.648460,81.609894 77.371811,82.171227 
	C79.052109,82.336021 81.758080,85.373291 81.768089,87.106911 
	C81.841095,99.757278 81.346397,112.410919 81.061310,125.532478 
z"/>
<path fill="#85A1C6" opacity="1.000000" stroke="none" 
	d="
M223.185165,77.765236 
	C223.457367,77.572502 223.820984,77.738121 223.938370,78.010048 
	C224.872711,80.174545 225.412918,83.955269 226.726852,84.241295 
	C230.825317,85.133476 235.229630,84.938309 239.470245,84.599800 
	C240.349991,84.529579 241.875580,81.885521 241.668808,80.672157 
	C240.648026,74.681992 239.127914,68.777748 237.826218,62.833946 
	C237.562836,61.631233 237.481934,60.388550 237.627518,58.932816 
	C242.559387,66.083885 243.599564,74.421539 243.821396,82.819145 
	C243.856644,84.153412 241.173035,86.229874 239.384659,86.773895 
	C237.099472,87.469040 234.446945,86.962929 231.952728,86.963394 
	C223.094940,86.965034 222.980240,86.848511 223.185165,77.765236 
z"/>
<path fill="#7294BF" opacity="1.000000" stroke="none" 
	d="
M169.386887,112.872009 
	C168.458633,105.730247 168.458511,105.699127 160.912704,105.728462 
	C150.309448,105.769691 151.243057,104.708549 151.161255,115.327545 
	C151.110031,121.977516 150.960724,128.626740 150.332474,135.703552 
	C149.583160,136.153793 149.356796,136.176788 149.130432,136.199799 
	C149.096268,126.896889 149.152161,117.592300 148.978333,108.292007 
	C148.918808,105.108414 149.924652,103.835518 153.250076,103.878937 
	C156.655090,103.923409 160.065887,103.272202 163.479309,102.987206 
	C168.976074,102.528290 170.490799,104.885635 169.386887,112.872009 
z"/>
<path fill="#A1B6D2" opacity="1.000000" stroke="none" 
	d="
M184.995499,21.009699 
	C169.385986,20.364653 154.837082,23.713388 141.667862,32.397469 
	C139.505722,33.823235 137.155426,34.963657 134.519043,36.228844 
	C145.066620,25.330473 158.530930,20.605927 173.662506,20.008596 
	C177.143982,19.871161 180.635788,19.995241 184.588242,20.296719 
	C185.053650,20.594465 184.995499,21.009699 184.995499,21.009699 
z"/>
<path fill="#85A1C6" opacity="1.000000" stroke="none" 
	d="
M59.381721,168.727829 
	C64.348000,168.785995 69.320854,168.707718 74.278389,168.946915 
	C78.019966,169.127457 79.282188,167.480453 79.145721,163.933548 
	C78.980309,159.634262 78.987480,155.318420 79.171867,151.020538 
	C79.243851,149.342514 80.000694,147.693848 80.869019,145.988037 
	C81.292419,154.182373 81.292419,162.420486 81.292419,170.989258 
	C73.807198,170.989258 66.897606,170.989258 59.586807,170.574646 
	C59.250973,169.682617 59.316349,169.205231 59.381721,168.727829 
z"/>
<path fill="#CDD7E3" opacity="1.000000" stroke="none" 
	d="
M59.329315,168.279480 
	C59.316349,169.205231 59.250973,169.682617 59.125618,170.515869 
	C58.710293,169.781815 58.046909,168.692520 58.044647,167.601868 
	C57.987709,140.153412 57.987274,112.704781 58.048973,85.256348 
	C58.051399,84.176880 58.763828,83.098991 59.593025,82.075180 
	C59.811504,82.664291 59.582394,83.198586 59.349510,84.023552 
	C59.322800,112.153191 59.299854,139.992157 59.329315,168.279480 
z"/>
<path fill="#85A1C6" opacity="1.000000" stroke="none" 
	d="
M341.934723,192.726013 
	C341.516144,191.332092 340.850067,189.452347 340.845337,187.570953 
	C340.777130,160.320099 340.797638,133.069031 340.923340,105.357407 
	C341.535980,105.837952 342.449341,106.780548 342.446228,107.720047 
	C342.351379,135.893341 342.165955,164.066345 341.934723,192.726013 
z"/>
<path fill="#98B0CE" opacity="1.000000" stroke="none" 
	d="
M352.583191,120.940079 
	C352.655121,122.656227 352.460999,124.434532 352.000580,126.140991 
	C349.265259,136.279144 350.328339,146.047195 354.846252,155.873703 
	C354.054626,155.698685 352.637543,155.394348 352.273834,154.604767 
	C347.232758,143.660889 346.631561,132.533737 351.332123,121.294571 
	C351.413513,121.099937 351.897858,121.073814 352.583191,120.940079 
z"/>
<path fill="#7294BF" opacity="1.000000" stroke="none" 
	d="
M117.768280,59.800690 
	C117.853561,61.167652 117.659637,62.779377 117.408615,64.382164 
	C116.242188,71.830086 115.122299,79.286171 113.853111,86.716682 
	C113.335144,89.749146 112.481415,92.724258 111.460426,95.918106 
	C112.414078,85.637268 113.605934,75.152519 115.046547,64.702057 
	C115.271729,63.068501 116.629005,61.591000 117.768280,59.800690 
z"/>
<path fill="#A1B6D2" opacity="1.000000" stroke="none" 
	d="
M227.567139,43.395443 
	C219.364944,37.481922 210.957199,31.326080 202.206818,25.056595 
	C212.968872,27.364752 221.386200,33.549366 227.567139,43.395443 
z"/>
<path fill="#D0DAE5" opacity="1.000000" stroke="none" 
	d="
M442.217041,166.034103 
	C442.180084,156.655151 442.143097,147.276199 442.348267,137.126053 
	C442.571381,135.419510 442.552399,134.484161 442.533386,133.548798 
	C442.799744,133.333405 443.066101,133.117996 443.591370,132.862976 
	C443.805206,145.154709 443.760162,157.486084 443.301086,169.668472 
	C442.663696,168.357697 442.440369,167.195908 442.217041,166.034103 
z"/>
<path fill="#819FC5" opacity="1.000000" stroke="none" 
	d="
M369.950348,169.447479 
	C377.435822,169.018158 384.952667,169.073547 392.466064,168.937424 
	C394.403290,168.902313 396.329651,168.265228 398.683289,167.972946 
	C395.967804,169.259720 392.890930,171.285538 389.679535,171.527756 
	C383.100616,172.023972 376.269653,173.494370 369.950348,169.447479 
z"/>
<path fill="#9DB3D1" opacity="1.000000" stroke="none" 
	d="
M219.331696,168.535217 
	C228.110199,170.354874 237.124680,170.869858 246.634552,168.956360 
	C244.986313,169.972595 242.938232,171.532425 240.801697,171.664780 
	C233.571762,172.112686 226.104889,173.526260 219.331696,168.535217 
z"/>
<path fill="#6085BA" opacity="1.000000" stroke="none" 
	d="
M322.925232,164.449432 
	C323.235291,169.371536 323.869476,174.721405 323.870270,180.071365 
	C323.871002,184.919174 323.181152,189.767090 322.474640,194.821960 
	C322.088959,186.378860 321.978027,177.728607 322.006683,169.078812 
	C322.011322,167.677246 322.635620,166.277710 322.925232,164.449432 
z"/>
<path fill="#BFCCDE" opacity="1.000000" stroke="none" 
	d="
M117.007172,168.943283 
	C124.586151,168.880753 132.165131,168.818207 140.215073,168.428055 
	C140.686035,168.100449 141.086670,167.948044 141.086670,167.948044 
	C142.682159,169.976318 142.466522,171.045883 139.608795,171.007065 
	C131.836151,170.901474 124.062508,170.869141 116.267891,170.258789 
	C116.500076,169.454285 116.753624,169.198792 117.007172,168.943283 
z"/>
<path fill="#9DB3D1" opacity="1.000000" stroke="none" 
	d="
M244.923996,199.653320 
	C244.218964,198.650757 243.050934,197.219788 243.032730,195.774338 
	C242.959671,189.967819 239.752472,188.842148 234.760025,189.320480 
	C231.522797,189.630630 228.221481,189.272003 224.548416,189.189514 
	C226.350754,188.767990 228.540756,188.154907 230.759399,188.022705 
	C234.039703,187.827240 237.365921,187.739853 240.619049,188.095779 
	C241.822250,188.227402 243.560608,189.558212 243.859390,190.664902 
	C244.602463,193.417099 244.657944,196.354935 244.923996,199.653320 
z"/>
<path fill="#93ACCC" opacity="1.000000" stroke="none" 
	d="
M441.979248,166.343536 
	C442.440369,167.195908 442.663696,168.357697 442.941864,169.885376 
	C437.036316,170.521988 431.075958,170.792709 424.289429,171.018005 
	C423.216309,170.992599 422.969299,171.012589 422.722290,171.032593 
	C422.722290,171.032593 422.437714,171.086670 422.316345,171.011688 
	C422.290985,170.142044 422.387024,169.347366 422.641479,168.298309 
	C428.337158,168.322815 433.873047,168.691483 439.413269,168.776535 
	C440.178284,168.788269 440.964844,167.395508 441.979248,166.343536 
z"/>
<path fill="#D0DAE5" opacity="1.000000" stroke="none" 
	d="
M379.561066,102.086105 
	C379.983490,102.463257 379.974945,102.762283 379.976685,103.285599 
	C374.275543,105.720497 368.574707,107.953613 362.848633,110.120087 
	C361.876465,110.487900 360.795990,110.569542 359.916199,110.268005 
	C365.187378,104.135918 371.645294,101.810760 379.561066,102.086105 
z"/>
<path fill="#819FC5" opacity="1.000000" stroke="none" 
	d="
M193.437866,122.701767 
	C192.977402,116.897255 192.891113,110.956436 192.707581,104.560364 
	C193.699478,104.949730 195.774872,105.866356 195.719299,106.627365 
	C195.330002,111.958061 194.500626,117.256615 193.437866,122.701767 
z"/>
<path fill="#7294BF" opacity="1.000000" stroke="none" 
	d="
M150.495407,167.718307 
	C156.419632,167.943222 162.343842,168.168152 168.840668,168.197998 
	C169.413254,168.002930 169.840805,168.004990 169.840820,168.004990 
	C169.406403,168.953522 168.952423,170.735153 168.540543,170.725464 
	C162.462372,170.582611 156.389832,170.201752 150.255371,169.146713 
	C150.294983,168.183502 150.395187,167.950912 150.495407,167.718307 
z"/>
<path fill="#93ACCC" opacity="1.000000" stroke="none" 
	d="
M314.209351,237.962982 
	C318.733154,233.546875 323.575226,229.246643 328.766907,224.985199 
	C325.506622,230.775925 321.303040,235.864380 314.209351,237.962982 
z"/>
<path fill="#D0DAE5" opacity="1.000000" stroke="none" 
	d="
M185.322342,21.205742 
	C184.995499,21.009699 185.053650,20.594465 185.052536,20.384823 
	C191.197388,19.452847 196.898697,20.605988 202.050262,24.593975 
	C196.602356,23.793444 191.125763,22.597614 185.322342,21.205742 
z"/>
<path fill="#698DBB" opacity="1.000000" stroke="none" 
	d="
M169.906799,167.540237 
	C169.840805,168.004990 169.413254,168.002930 169.199463,168.000290 
	C168.974747,157.801880 168.884369,147.605057 169.020737,137.411255 
	C169.047623,135.401306 169.948257,133.403015 170.793304,131.210175 
	C170.751373,143.039154 170.362091,155.057327 169.906799,167.540237 
z"/>
<path fill="#85A1C6" opacity="1.000000" stroke="none" 
	d="
M201.623322,124.970467 
	C202.067688,132.346359 202.144379,139.924484 202.097275,147.823975 
	C201.308624,146.094894 200.055618,144.034012 200.091660,141.995956 
	C200.190903,136.383087 200.830048,130.779785 201.623322,124.970467 
z"/>
<path fill="#93ACCC" opacity="1.000000" stroke="none" 
	d="
M423.764893,105.375504 
	C423.236420,104.890457 423.154816,104.396301 423.028625,103.528946 
	C428.873932,103.194107 434.763824,103.232475 440.868103,103.909668 
	C441.044434,104.714836 441.006409,104.881172 440.968353,105.047516 
	C435.382843,105.153809 429.797302,105.260101 423.764893,105.375504 
z"/>
<path fill="#89A5C8" opacity="1.000000" stroke="none" 
	d="
M294.317810,227.153229 
	C286.962402,229.608261 279.198242,230.688980 271.348724,226.470490 
	C276.415497,226.458923 281.658142,226.764297 286.903809,227.004532 
	C289.227570,227.110947 291.557373,227.085480 294.317810,227.153229 
z"/>
<path fill="#D0DAE5" opacity="1.000000" stroke="none" 
	d="
M441.098236,105.349678 
	C441.006409,104.881172 441.044434,104.714836 441.086975,104.293091 
	C442.740723,105.013870 444.389954,105.990051 446.398254,107.009926 
	C447.133087,107.534546 447.929504,108.285583 447.820557,108.455223 
	C446.521790,110.477615 445.088379,112.413567 443.690247,114.372169 
	C443.132996,113.989731 442.575714,113.607292 442.018433,113.224861 
	C441.755005,110.700516 441.491577,108.176178 441.098236,105.349678 
z"/>
<path fill="#AFBFD8" opacity="1.000000" stroke="none" 
	d="
M150.514328,167.269287 
	C150.395187,167.950912 150.294983,168.183502 150.084091,168.779510 
	C149.648315,167.651749 149.055832,166.163055 149.041916,164.668961 
	C148.956284,155.476151 149.001297,146.282104 149.066635,136.644135 
	C149.356796,136.176788 149.583160,136.153793 150.146362,136.073181 
	C150.499893,146.283783 150.516571,156.552017 150.514328,167.269287 
z"/>
<path fill="#819FC5" opacity="1.000000" stroke="none" 
	d="
M413.374329,140.916718 
	C413.794312,141.003540 413.834717,141.239990 413.942932,141.829956 
	C410.366272,142.460480 406.725281,142.900314 403.076599,142.977783 
	C397.006989,143.106674 390.932404,143.003113 384.384827,142.926117 
	C386.925720,142.530853 389.934509,142.073441 392.959137,141.910278 
	C399.633453,141.550278 406.315765,141.338562 413.374329,140.916718 
z"/>
<path fill="#93ACCC" opacity="1.000000" stroke="none" 
	d="
M288.604889,107.932259 
	C285.885406,111.346191 282.817108,114.810493 279.481812,118.391922 
	C282.228546,115.000237 285.242340,111.491432 288.604889,107.932259 
z"/>
<path fill="#85A1C6" opacity="1.000000" stroke="none" 
	d="
M340.871887,104.563004 
	C336.817596,105.072609 332.517914,105.003014 328.269409,105.435692 
	C326.595856,105.606125 325.036469,106.897636 323.261475,108.036285 
	C322.624969,107.122849 322.152039,105.851746 321.531860,104.184914 
	C328.319366,104.184914 334.483215,104.184914 340.871887,104.563004 
z"/>
<path fill="#D0DAE5" opacity="1.000000" stroke="none" 
	d="
M457.920013,102.589653 
	C454.295197,104.555389 450.499207,106.162384 446.897278,107.251839 
	C449.870789,103.403717 453.142517,101.238159 457.920013,102.589653 
z"/>
<path fill="#85A1C6" opacity="1.000000" stroke="none" 
	d="
M116.891899,168.649261 
	C116.753624,169.198792 116.500076,169.454285 116.035408,169.878952 
	C115.240280,168.949875 114.656265,167.851654 114.013962,166.415924 
	C114.895996,166.837372 115.836311,167.596298 116.891899,168.649261 
z"/>
<path fill="#7294BF" opacity="1.000000" stroke="none" 
	d="
M120.624252,54.152374 
	C120.161652,55.568745 119.442635,57.186508 118.422501,58.973068 
	C118.870209,57.545830 119.619026,55.949799 120.624252,54.152374 
z"/>
<path fill="#D0DAE5" opacity="1.000000" stroke="none" 
	d="
M359.464935,109.959290 
	C361.173981,111.759148 360.824585,112.312416 357.130951,113.357925 
	C357.662537,111.871109 358.393250,110.912155 359.464935,109.959290 
z"/>
<path fill="#819FC5" opacity="1.000000" stroke="none" 
	d="
M366.124329,167.355957 
	C367.170807,167.553818 368.401550,168.044479 369.838318,168.812180 
	C368.799072,168.609085 367.553864,168.128937 366.124329,167.355957 
z"/>
<path fill="#93ACCC" opacity="1.000000" stroke="none" 
	d="
M292.812073,106.086769 
	C291.976807,106.848114 290.765656,107.563438 289.226135,108.105972 
	C290.077209,107.302376 291.256683,106.671562 292.812073,106.086769 
z"/>
<path fill="#98B0CE" opacity="1.000000" stroke="none" 
	d="
M354.995880,117.997696 
	C354.487976,118.909134 353.980042,119.820572 353.179443,120.888474 
	C352.956268,120.269135 353.025787,119.493317 353.438507,118.328476 
	C354.186432,117.958862 354.591156,117.978271 354.995880,117.997696 
z"/>
<path fill="#85A1C6" opacity="1.000000" stroke="none" 
	d="
M139.076553,164.594391 
	C138.076248,164.146118 137.035507,163.337662 135.991364,162.170349 
	C137.003998,162.619064 138.020050,163.426636 139.076553,164.594391 
z"/>
<path fill="#7294BF" opacity="1.000000" stroke="none" 
	d="
M122.695396,51.011581 
	C122.509079,51.750294 122.037704,52.640759 121.297592,53.630669 
	C121.489349,52.874519 121.949837,52.018925 122.695396,51.011581 
z"/>
<path fill="#93ACCC" opacity="1.000000" stroke="none" 
	d="
M329.335205,225.004059 
	C329.440765,224.281723 329.829224,223.464279 330.510986,222.549561 
	C330.408936,223.271164 330.013519,224.090057 329.335205,225.004059 
z"/>
<path fill="#85A1C6" opacity="1.000000" stroke="none" 
	d="
M141.065796,167.612732 
	C141.086670,167.948044 140.686035,168.100449 140.475937,168.058365 
	C139.753464,167.203751 139.241074,166.391220 138.900482,165.241165 
	C139.729828,165.694901 140.387375,166.486176 141.065796,167.612732 
z"/>
<path fill="#D0DAE5" opacity="1.000000" stroke="none" 
	d="
M355.198303,117.507538 
	C354.591156,117.978271 354.186432,117.958862 353.477722,117.938843 
	C353.510742,117.024704 353.847748,116.111176 354.470764,115.099579 
	C354.971436,115.673470 355.186096,116.345428 355.198303,117.507538 
z"/>
<path fill="#89A5C8" opacity="1.000000" stroke="none" 
	d="
M82.305801,126.181503 
	C82.151634,126.123550 81.717636,126.029739 81.093094,125.982361 
	C81.277016,126.067741 81.651489,126.106697 82.305801,126.181503 
z"/>
<path fill="#98B0CE" opacity="1.000000" stroke="none" 
	d="
M354.578369,156.226807 
	C355.134918,156.440872 355.469391,156.960678 355.877075,157.783142 
	C355.418945,157.568039 354.887634,157.050308 354.578369,156.226807 
z"/>
<path fill="#CDD7E3" opacity="1.000000" stroke="none" 
	d="
M422.879272,171.277939 
	C422.969299,171.012589 423.216309,170.992599 423.834412,171.001923 
	C423.815765,171.195267 423.425995,171.359283 422.879272,171.277939 
z"/>
<path fill="#D0DAE5" opacity="1.000000" stroke="none" 
	d="
M356.659180,112.936783 
	C356.855164,113.407341 356.801849,113.971741 356.295471,114.220276 
	C356.031586,113.613144 356.220703,113.321884 356.659180,112.936783 
z"/>
<path fill="#D0DAE5" opacity="1.000000" stroke="none" 
	d="
M355.662537,113.927231 
	C355.846771,114.433334 355.782166,115.028969 355.282959,115.251862 
	C355.036774,114.591667 355.225220,114.304214 355.662537,113.927231 
z"/>
<path fill="#819FC5" opacity="1.000000" stroke="none" 
	d="
M192.073792,103.834106 
	C192.090515,103.665497 191.959457,103.340897 191.525726,103.120331 
	C191.545532,103.239441 191.779861,103.390686 192.073792,103.834106 
z"/>
<path fill="#000000" opacity="1.000000" stroke="none" 
	d="
M322.971313,136.079712 
	C322.057770,141.139648 320.771362,145.493225 316.768341,148.693893 
	C309.217010,154.731644 299.920746,153.006531 295.324036,144.488358 
	C292.174866,138.652618 294.259735,127.308273 299.496216,123.122589 
	C307.868042,116.430740 317.883514,120.399887 321.850006,131.415604 
	C322.344086,132.787796 322.594025,134.247940 322.971313,136.079712 
z"/>
<path fill="#000000" opacity="1.000000" stroke="none" 
	d="
M228.550720,152.768143 
	C223.628983,150.034180 220.984009,146.129395 219.594650,141.090195 
	C217.803024,134.591995 220.409149,127.518112 226.602768,123.098923 
	C231.303177,119.745163 237.814987,120.071899 242.915039,124.666153 
	C249.139359,130.273148 249.847000,143.774673 242.712128,149.419907 
	C238.720047,152.578506 234.538193,155.854797 228.550720,152.768143 
z"/>
<path fill="#E0E5EB" opacity="1.000000" stroke="none" 
	d="
M370.479248,127.217133 
	C376.881989,117.338768 387.463928,116.915199 392.737610,126.022438 
	C394.815063,129.610031 394.229156,130.973068 390.250031,131.076355 
	C384.594147,131.223160 378.931549,131.104965 373.271881,131.119064 
	C370.794708,131.125229 369.313202,130.360901 370.479248,127.217133 
z"/>
<path fill="#819FC5" opacity="1.000000" stroke="none" 
	d="
M413.805786,136.162979 
	C414.076630,136.555573 414.185913,137.113632 414.131897,137.837570 
	C413.860474,137.445114 413.752350,136.886780 413.805786,136.162979 
z"/>
<path fill="#819FC5" opacity="1.000000" stroke="none" 
	d="
M412.625427,128.198853 
	C413.012146,128.577820 413.295166,129.170547 413.503479,130.096603 
	C413.126434,129.757492 412.824097,129.085068 412.625427,128.198853 
z"/>
<path fill="#93ACCC" opacity="1.000000" stroke="none" 
	d="
M442.296387,133.704315 
	C442.552399,134.484161 442.571381,135.419510 442.399109,136.657379 
	C442.158325,135.926544 442.108826,134.893173 442.296387,133.704315 
z"/>
</svg>