<svg version="1.1" id="Layer_1" xmlns="http://www.w3.org/2000/svg" xmlns:xlink="http://www.w3.org/1999/xlink" x="0px" y="0px"
	 width="100%" viewBox="0 0 522 255" enable-background="new 0 0 522 255" xml:space="preserve">
<path fill="none" opacity="1.000000" stroke="none" 
	d="
M308.000000,256.000000 
	C205.366196,256.000000 103.232399,256.000000 1.049299,256.000000 
	C1.049299,171.060226 1.049299,86.120430 1.049299,1.090313 
	C174.883774,1.090313 348.767609,1.090313 522.825684,1.090313 
	C522.825684,85.999718 522.825684,170.999817 522.825684,256.000000 
	C451.453827,256.000000 379.976898,256.000000 308.000000,256.000000 
M356.112579,216.200760 
	C353.675018,211.636536 350.181335,209.889359 346.150116,211.656006 
	C342.637756,213.195282 339.795746,215.440353 341.625702,220.816299 
	C342.872345,225.588699 346.388672,227.001022 350.626892,225.991364 
	C355.118622,224.921341 356.507599,221.310638 356.112579,216.200760 
M199.314682,24.264524 
	C182.245865,18.416817 165.394104,19.183739 149.357147,27.292484 
	C125.740692,39.233643 113.683502,58.894779 112.609535,85.310410 
	C111.815346,104.844437 101.947182,119.049606 85.092354,124.806381 
	C83.796196,125.249077 82.377724,125.333633 80.313431,125.714203 
	C80.313431,123.182716 80.313095,121.394264 80.313477,119.605812 
	C80.315758,109.110336 80.133896,98.609962 80.412643,88.121834 
	C80.521896,84.010986 78.974068,82.808968 75.194481,83.014854 
	C71.540215,83.213928 67.843651,83.316643 64.207550,82.992233 
	C59.937756,82.611290 58.895706,84.329903 58.922527,88.396095 
	C59.087345,113.384247 59.004429,138.374023 59.007568,163.363266 
	C59.008377,169.815475 59.017479,169.942398 65.544151,169.780136 
	C70.292328,169.662079 76.563156,170.827194 79.311142,168.312454 
	C81.709366,166.117783 80.246330,159.581406 80.289146,154.961426 
	C80.370598,146.172409 80.315887,146.186768 88.984856,143.494598 
	C90.731644,142.952133 92.544197,142.456039 94.122681,141.573959 
	C96.786346,140.085464 98.314049,140.922867 99.797340,143.347275 
	C103.443321,149.306549 107.870995,154.862473 110.894051,161.108307 
	C114.381317,168.313217 119.350983,170.915436 127.094635,169.925812 
	C131.547379,169.356766 136.132401,169.822647 141.698517,169.822647 
	C139.950638,167.006989 139.042130,165.446365 138.041534,163.947189 
	C130.929520,153.291580 123.892776,142.583435 116.605515,132.048737 
	C114.856689,129.520569 114.904579,127.862991 116.834854,125.553070 
	C126.947105,113.451988 131.428680,99.383240 131.778824,83.672089 
	C132.287399,60.851780 150.526169,41.907501 173.705215,39.591454 
	C195.971939,37.366558 217.423828,52.700424 222.550156,74.488510 
	C223.408600,78.137100 223.221222,83.217285 225.544083,85.010902 
	C227.992447,86.901451 232.869446,85.721306 236.686340,85.748314 
	C243.177307,85.794250 243.423996,85.720482 242.669449,79.422241 
	C239.459946,52.632778 224.936859,34.521336 199.314682,24.264524 
M341.619415,162.500092 
	C341.619446,147.338104 341.619476,132.176132 341.619507,117.014145 
	C341.619507,104.348061 341.616272,104.200623 329.140198,104.474022 
	C326.315948,104.535912 323.522736,106.012749 319.593781,107.168030 
	C305.673096,98.685974 291.329132,104.822777 283.565582,112.829613 
	C273.893158,122.805206 271.636383,140.101013 278.626801,152.292496 
	C282.187653,158.502747 287.308777,163.138550 293.884186,166.185501 
	C303.401489,170.595734 312.604034,169.049545 322.498169,164.106918 
	C322.498169,173.942841 322.929108,182.868698 322.409729,191.738892 
	C321.279297,211.044739 305.540802,226.475342 285.734039,228.275696 
	C267.429779,229.939484 249.054932,216.790802 244.480621,198.801224 
	C243.653946,195.550110 243.606934,191.015884 241.469101,189.474075 
	C239.113525,187.775284 234.762482,188.749771 231.279602,188.726898 
	C223.602188,188.676453 223.181900,189.058533 224.622299,196.687729 
	C229.144867,220.641922 242.642944,236.891342 266.004272,244.703186 
	C296.717682,254.973526 333.971100,234.105225 339.673889,202.283722 
	C341.938782,189.645554 341.064270,176.444748 341.619415,162.500092 
M381.588531,171.005188 
	C394.112396,171.686981 404.040955,166.669525 412.928589,156.805283 
	C409.971588,155.134583 407.515869,153.881195 405.199829,152.408279 
	C401.379059,149.978439 398.094299,148.978409 393.451691,151.717026 
	C386.975311,155.537399 376.788116,154.075058 372.835510,149.717728 
	C371.496338,148.241486 370.981964,146.017059 370.090668,144.134537 
	C371.902496,143.643692 373.709717,142.748840 375.526947,142.727936 
	C386.857635,142.597595 398.190613,142.644073 409.522705,142.676407 
	C412.318542,142.684387 414.209076,142.188889 414.501740,138.680649 
	C416.408020,115.829636 394.304932,97.816780 372.615845,104.674515 
	C357.201416,109.548302 347.659485,124.778198 349.634460,141.355270 
	C351.680786,158.531693 363.527069,169.853455 381.588531,171.005188 
M265.735657,126.825607 
	C260.911804,112.817009 251.198410,104.926056 236.398758,103.480865 
	C223.258224,102.197678 210.141068,108.902390 204.329712,120.462379 
	C197.801270,133.448822 198.279800,146.358566 207.295868,158.047577 
	C216.083191,169.440109 228.120789,173.410019 241.987686,170.017853 
	C260.848480,165.404083 270.402435,148.005966 265.735657,126.825607 
M173.149078,128.816101 
	C176.989761,126.714012 180.669174,124.184578 184.725449,122.653725 
	C187.633224,121.556320 192.701889,122.891190 193.836777,121.175964 
	C195.462936,118.718277 194.383621,114.468956 194.453995,110.984482 
	C194.470795,110.152634 194.375076,109.307884 194.487030,108.490417 
	C194.967316,104.983437 193.074600,103.691566 189.941208,103.414185 
	C183.286133,102.825058 177.897583,105.428886 173.493271,110.161247 
	C172.550552,111.174164 172.368347,112.894875 171.835800,114.289520 
	C171.247269,113.695457 170.658722,113.101395 170.070190,112.507332 
	C168.904785,104.346397 168.904785,104.346313 160.278885,104.346085 
	C158.448242,104.346031 156.602463,104.497826 154.790024,104.316391 
	C150.779877,103.914932 149.637314,105.735184 149.678360,109.567947 
	C149.840515,124.710693 149.748337,139.856171 149.749207,155.000641 
	C149.750076,170.128983 149.748978,169.980011 165.042130,169.936050 
	C169.152756,169.924225 170.131882,168.470566 170.035538,164.679535 
	C169.811539,155.864777 169.736465,147.031723 170.082733,138.225037 
	C170.199417,135.257614 171.769150,132.347305 173.149078,128.816101 
M466.784607,114.459747 
	C466.786285,112.627403 466.561951,110.760712 466.834320,108.969528 
	C467.499359,104.595627 465.149384,103.439911 461.421234,103.360962 
	C455.567841,103.237015 450.758148,105.521461 446.628845,109.504463 
	C445.389313,110.700058 444.123749,111.868675 442.190338,113.690048 
	C442.028107,111.687546 441.764709,110.723030 441.908203,109.823402 
	C442.641296,105.226654 440.494537,103.916435 436.237244,104.307083 
	C433.098724,104.595085 429.907043,104.480865 426.749176,104.331322 
	C423.569763,104.180748 422.304596,105.363197 422.324829,108.679008 
	C422.439392,127.501381 422.450378,146.325134 422.334229,165.147446 
	C422.313232,168.547668 423.312958,170.068466 426.873016,169.867554 
	C430.526031,169.661407 434.211761,169.636337 437.861115,169.872894 
	C441.693115,170.121307 442.727905,168.442673 442.643494,164.853241 
	C442.447723,156.529037 442.584320,148.197128 442.578003,139.868332 
	C442.569641,128.858643 449.172272,122.317329 460.230347,122.382874 
	C462.312317,122.395218 464.394379,122.384644 466.784637,122.384644 
	C466.784637,119.710991 466.784637,117.561424 466.784607,114.459747 
z"/>
<path fill="#1C539C" opacity="1.000000" stroke="none" 
	d="
M199.690842,24.372066 
	C224.936859,34.521336 239.459946,52.632778 242.669449,79.422241 
	C243.423996,85.720482 243.177307,85.794250 236.686340,85.748314 
	C232.869446,85.721306 227.992447,86.901451 225.544083,85.010902 
	C223.221222,83.217285 223.408600,78.137100 222.550156,74.488510 
	C217.423828,52.700424 195.971939,37.366558 173.705215,39.591454 
	C150.526169,41.907501 132.287399,60.851780 131.778824,83.672089 
	C131.428680,99.383240 126.947105,113.451988 116.834854,125.553070 
	C114.904579,127.862991 114.856689,129.520569 116.605515,132.048737 
	C123.892776,142.583435 130.929520,153.291580 138.041534,163.947189 
	C139.042130,165.446365 139.950638,167.006989 141.698517,169.822647 
	C136.132401,169.822647 131.547379,169.356766 127.094635,169.925812 
	C119.350983,170.915436 114.381317,168.313217 110.894051,161.108307 
	C107.870995,154.862473 103.443321,149.306549 99.797340,143.347275 
	C98.314049,140.922867 96.786346,140.085464 94.122681,141.573959 
	C92.544197,142.456039 90.731644,142.952133 88.984856,143.494598 
	C80.315887,146.186768 80.370598,146.172409 80.289146,154.961426 
	C80.246330,159.581406 81.709366,166.117783 79.311142,168.312454 
	C76.563156,170.827194 70.292328,169.662079 65.544151,169.780136 
	C59.017479,169.942398 59.008377,169.815475 59.007568,163.363266 
	C59.004429,138.374023 59.087345,113.384247 58.922527,88.396095 
	C58.895706,84.329903 59.937756,82.611290 64.207550,82.992233 
	C67.843651,83.316643 71.540215,83.213928 75.194481,83.014854 
	C78.974068,82.808968 80.521896,84.010986 80.412643,88.121834 
	C80.133896,98.609962 80.315758,109.110336 80.313477,119.605812 
	C80.313095,121.394264 80.313431,123.182716 80.313431,125.714203 
	C82.377724,125.333633 83.796196,125.249077 85.092354,124.806381 
	C101.947182,119.049606 111.815346,104.844437 112.609535,85.310410 
	C113.683502,58.894779 125.740692,39.233643 149.357147,27.292484 
	C165.394104,19.183739 182.245865,18.416817 199.690842,24.372066 
z"/>
<path fill="#1C549D" opacity="1.000000" stroke="none" 
	d="
M341.619263,163.000092 
	C341.064270,176.444748 341.938782,189.645554 339.673889,202.283722 
	C333.971100,234.105225 296.717682,254.973526 266.004272,244.703186 
	C242.642944,236.891342 229.144867,220.641922 224.622299,196.687729 
	C223.181900,189.058533 223.602188,188.676453 231.279602,188.726898 
	C234.762482,188.749771 239.113525,187.775284 241.469101,189.474075 
	C243.606934,191.015884 243.653946,195.550110 244.480621,198.801224 
	C249.054932,216.790802 267.429779,229.939484 285.734039,228.275696 
	C305.540802,226.475342 321.279297,211.044739 322.409729,191.738892 
	C322.929108,182.868698 322.498169,173.942841 322.498169,164.106918 
	C312.604034,169.049545 303.401489,170.595734 293.884186,166.185501 
	C287.308777,163.138550 282.187653,158.502747 278.626801,152.292496 
	C271.636383,140.101013 273.893158,122.805206 283.565582,112.829613 
	C291.329132,104.822777 305.673096,98.685974 319.593781,107.168030 
	C323.522736,106.012749 326.315948,104.535912 329.140198,104.474022 
	C341.616272,104.200623 341.619507,104.348061 341.619507,117.014145 
	C341.619476,132.176132 341.619446,147.338104 341.619263,163.000092 
M294.728302,129.477631 
	C294.289825,130.905365 293.722839,132.307663 293.434479,133.765091 
	C291.944031,141.297394 297.374756,149.645477 304.730225,151.227478 
	C312.992676,153.004532 320.018188,148.637482 322.127747,140.413193 
	C324.037354,132.968491 320.804138,125.128899 314.603638,122.169418 
	C307.274628,118.671303 300.411865,120.984375 294.728302,129.477631 
z"/>
<path fill="#1D549D" opacity="1.000000" stroke="none" 
	d="
M381.117371,170.999588 
	C363.527069,169.853455 351.680786,158.531693 349.634460,141.355270 
	C347.659485,124.778198 357.201416,109.548302 372.615845,104.674515 
	C394.304932,97.816780 416.408020,115.829636 414.501740,138.680649 
	C414.209076,142.188889 412.318542,142.684387 409.522705,142.676407 
	C398.190613,142.644073 386.857635,142.597595 375.526947,142.727936 
	C373.709717,142.748840 371.902496,143.643692 370.090668,144.134537 
	C370.981964,146.017059 371.496338,148.241486 372.835510,149.717728 
	C376.788116,154.075058 386.975311,155.537399 393.451691,151.717026 
	C398.094299,148.978409 401.379059,149.978439 405.199829,152.408279 
	C407.515869,153.881195 409.971588,155.134583 412.928589,156.805283 
	C404.040955,166.669525 394.112396,171.686981 381.117371,170.999588 
M370.486420,130.419754 
	C378.238373,130.419754 385.990356,130.419754 393.787170,130.419754 
	C392.914429,124.051422 387.790375,119.364807 382.089417,119.314369 
	C376.353699,119.263626 371.386444,123.560341 370.486420,130.419754 
z"/>
<path fill="#1A529C" opacity="1.000000" stroke="none" 
	d="
M265.818634,127.221466 
	C270.402435,148.005966 260.848480,165.404083 241.987686,170.017853 
	C228.120789,173.410019 216.083191,169.440109 207.295868,158.047577 
	C198.279800,146.358566 197.801270,133.448822 204.329712,120.462379 
	C210.141068,108.902390 223.258224,102.197678 236.398758,103.480865 
	C251.198410,104.926056 260.911804,112.817009 265.818634,127.221466 
M223.963913,149.837463 
	C229.817169,155.724747 238.704391,155.503220 243.584091,148.902267 
	C244.123093,148.306961 244.662079,147.711655 245.812592,147.030197 
	C246.341095,145.704880 246.869598,144.379578 247.456985,142.440002 
	C247.564743,142.043976 247.672516,141.647949 248.344330,140.824631 
	C248.146255,138.131699 247.948181,135.438766 247.529282,132.169189 
	C247.452591,131.765427 247.375900,131.361664 247.696655,130.597794 
	C247.196976,130.027618 246.697311,129.457443 245.992126,128.536270 
	C245.992126,128.536270 245.865097,128.149872 245.971939,127.485878 
	C245.365005,126.959435 244.758057,126.432991 243.726288,125.515503 
	C243.161697,124.993736 242.597107,124.471970 241.942734,123.269753 
	C241.186996,122.960701 240.431244,122.651649 239.035034,122.215355 
	C238.404068,122.048660 237.773102,121.881966 236.900940,121.024696 
	C233.555695,119.430603 230.457901,119.542671 227.249420,122.738068 
	C226.539841,123.193367 225.830261,123.648666 224.408478,124.045189 
	C223.652710,125.083542 222.896957,126.121902 221.971832,127.530388 
	C221.971832,127.530388 221.714859,127.846062 221.021957,127.984848 
	C216.012253,135.341385 217.366379,145.353561 223.963120,149.037048 
	C223.963120,149.037048 223.907578,149.123505 223.963913,149.837463 
z"/>
<path fill="#1F569E" opacity="1.000000" stroke="none" 
	d="
M172.911926,129.113495 
	C171.769150,132.347305 170.199417,135.257614 170.082733,138.225037 
	C169.736465,147.031723 169.811539,155.864777 170.035538,164.679535 
	C170.131882,168.470566 169.152756,169.924225 165.042130,169.936050 
	C149.748978,169.980011 149.750076,170.128983 149.749207,155.000641 
	C149.748337,139.856171 149.840515,124.710693 149.678360,109.567947 
	C149.637314,105.735184 150.779877,103.914932 154.790024,104.316391 
	C156.602463,104.497826 158.448242,104.346031 160.278885,104.346085 
	C168.904785,104.346313 168.904785,104.346397 170.070190,112.507332 
	C170.658722,113.101395 171.247269,113.695457 171.835800,114.289520 
	C172.368347,112.894875 172.550552,111.174164 173.493271,110.161247 
	C177.897583,105.428886 183.286133,102.825058 189.941208,103.414185 
	C193.074600,103.691566 194.967316,104.983437 194.487030,108.490417 
	C194.375076,109.307884 194.470795,110.152634 194.453995,110.984482 
	C194.383621,114.468956 195.462936,118.718277 193.836777,121.175964 
	C192.701889,122.891190 187.633224,121.556320 184.725449,122.653725 
	C180.669174,124.184578 176.989761,126.714012 172.911926,129.113495 
z"/>
<path fill="#1C539C" opacity="1.000000" stroke="none" 
	d="
M466.784607,114.935806 
	C466.784637,117.561424 466.784637,119.710991 466.784637,122.384644 
	C464.394379,122.384644 462.312317,122.395218 460.230347,122.382874 
	C449.172272,122.317329 442.569641,128.858643 442.578003,139.868332 
	C442.584320,148.197128 442.447723,156.529037 442.643494,164.853241 
	C442.727905,168.442673 441.693115,170.121307 437.861115,169.872894 
	C434.211761,169.636337 430.526031,169.661407 426.873016,169.867554 
	C423.312958,170.068466 422.313232,168.547668 422.334229,165.147446 
	C422.450378,146.325134 422.439392,127.501381 422.324829,108.679008 
	C422.304596,105.363197 423.569763,104.180748 426.749176,104.331322 
	C429.907043,104.480865 433.098724,104.595085 436.237244,104.307083 
	C440.494537,103.916435 442.641296,105.226654 441.908203,109.823402 
	C441.764709,110.723030 442.028107,111.687546 442.190338,113.690048 
	C444.123749,111.868675 445.389313,110.700058 446.628845,109.504463 
	C450.758148,105.521461 455.567841,103.237015 461.421234,103.360962 
	C465.149384,103.439911 467.499359,104.595627 466.834320,108.969528 
	C466.561951,110.760712 466.786285,112.627403 466.784607,114.935806 
z"/>
<path fill="#8DA8C9" opacity="1.000000" stroke="none" 
	d="
M341.591339,220.029465 
	C339.795746,215.440353 342.637756,213.195282 346.150116,211.656006 
	C350.181335,209.889359 353.675018,211.636536 355.733582,216.580154 
	C354.846222,216.955917 354.337921,216.952286 353.519806,216.781464 
	C350.474518,214.415176 347.868500,214.034592 345.364410,216.752991 
	C346.768341,218.006821 347.885406,219.004425 348.654358,220.003113 
	C347.209564,220.662170 346.112823,221.320160 344.714294,221.848907 
	C343.472107,221.156281 342.531738,220.592880 341.591339,220.029465 
z"/>
<path fill="#668ABA" opacity="1.000000" stroke="none" 
	d="
M341.608521,220.422882 
	C342.531738,220.592880 343.472107,221.156281 344.860199,222.135040 
	C346.207581,223.039368 347.107239,223.528336 348.371796,224.028381 
	C349.832611,223.033340 350.928558,222.027222 352.383850,220.945908 
	C353.105347,219.563354 353.467468,218.256012 353.829590,216.948669 
	C354.337921,216.952286 354.846222,216.955917 355.736572,216.948929 
	C356.507599,221.310638 355.118622,224.921341 350.626892,225.991364 
	C346.388672,227.001022 342.872345,225.588699 341.608521,220.422882 
z"/>
<path fill="#F1F2F2" opacity="1.000000" stroke="none" 
	d="
M294.871002,129.124893 
	C300.411865,120.984375 307.274628,118.671303 314.603638,122.169418 
	C320.804138,125.128899 324.037354,132.968491 322.127747,140.413193 
	C320.018188,148.637482 312.992676,153.004532 304.730225,151.227478 
	C297.374756,149.645477 291.944031,141.297394 293.434479,133.765091 
	C293.722839,132.307663 294.289825,130.905365 294.871002,129.124893 
z"/>
<path fill="#E0E5EB" opacity="1.000000" stroke="none" 
	d="
M370.291504,130.053986 
	C371.386444,123.560341 376.353699,119.263626 382.089417,119.314369 
	C387.790375,119.364807 392.914429,124.051422 393.787170,130.419754 
	C385.990356,130.419754 378.238373,130.419754 370.291504,130.053986 
z"/>
<path fill="#F6F6F4" opacity="1.000000" stroke="none" 
	d="
M225.120697,124.103958 
	C225.830261,123.648666 226.539841,123.193367 227.905487,122.648483 
	C231.421738,122.277695 234.281937,121.996483 237.142136,121.715271 
	C237.773102,121.881966 238.404068,122.048660 239.456390,122.579712 
	C240.596008,123.279442 241.314255,123.614822 242.032501,123.950195 
	C242.597107,124.471970 243.161697,124.993736 243.914169,126.029266 
	C244.689728,127.078636 245.277405,127.614258 245.865097,128.149872 
	C245.865097,128.149872 245.992126,128.536270 246.023804,129.041885 
	C246.470062,130.017624 246.884644,130.487762 247.299210,130.957901 
	C247.375900,131.361664 247.452591,131.765427 247.464600,132.905289 
	C247.526703,136.178238 247.653488,138.715073 247.780289,141.251923 
	C247.672516,141.647949 247.564743,142.043976 247.100616,142.879745 
	C246.229843,144.585114 245.715469,145.850739 245.201080,147.116364 
	C244.662079,147.711655 244.123093,148.306961 243.014984,149.071899 
	C236.239044,153.507019 230.065933,152.473267 223.907578,149.123505 
	C223.907578,149.123505 223.963120,149.037048 223.929779,148.699539 
	C218.918518,141.975372 219.310959,135.017670 221.714859,127.846062 
	C221.714859,127.846062 221.971832,127.530388 222.378601,127.294235 
	C223.563797,126.073380 224.342255,125.088676 225.120697,124.103958 
z"/>
<path fill="#6F91BE" opacity="1.000000" stroke="none" 
	d="
M221.368408,127.915451 
	C219.310959,135.017670 218.918518,141.975372 223.886612,148.727417 
	C217.366379,145.353561 216.012253,135.341385 221.368408,127.915451 
z"/>
<path fill="#6F91BE" opacity="1.000000" stroke="none" 
	d="
M223.935745,149.480484 
	C230.065933,152.473267 236.239044,153.507019 242.817657,149.299896 
	C238.704391,155.503220 229.817169,155.724747 223.935745,149.480484 
z"/>
<path fill="#6F91BE" opacity="1.000000" stroke="none" 
	d="
M237.021545,121.369980 
	C234.281937,121.996483 231.421738,122.277695 228.156433,122.455360 
	C230.457901,119.542671 233.555695,119.430603 237.021545,121.369980 
z"/>
<path fill="#6F91BE" opacity="1.000000" stroke="none" 
	d="
M248.062317,141.038269 
	C247.653488,138.715073 247.526703,136.178238 247.575012,133.193604 
	C247.948181,135.438766 248.146255,138.131699 248.062317,141.038269 
z"/>
<path fill="#6F91BE" opacity="1.000000" stroke="none" 
	d="
M245.506836,147.073273 
	C245.715469,145.850739 246.229843,144.585114 247.071167,143.186874 
	C246.869598,144.379578 246.341095,145.704880 245.506836,147.073273 
z"/>
<path fill="#6F91BE" opacity="1.000000" stroke="none" 
	d="
M224.764587,124.074577 
	C224.342255,125.088676 223.563797,126.073380 222.463272,127.109169 
	C222.896957,126.121902 223.652710,125.083542 224.764587,124.074577 
z"/>
<path fill="#6F91BE" opacity="1.000000" stroke="none" 
	d="
M247.497925,130.777847 
	C246.884644,130.487762 246.470062,130.017624 246.126556,129.217377 
	C246.697311,129.457443 247.196976,130.027618 247.497925,130.777847 
z"/>
<path fill="#6F91BE" opacity="1.000000" stroke="none" 
	d="
M245.918518,127.817871 
	C245.277405,127.614258 244.689728,127.078636 244.126587,126.224785 
	C244.758057,126.432991 245.365005,126.959435 245.918518,127.817871 
z"/>
<path fill="#6F91BE" opacity="1.000000" stroke="none" 
	d="
M241.987610,123.609978 
	C241.314255,123.614822 240.596008,123.279442 239.776642,122.643326 
	C240.431244,122.651649 241.186996,122.960701 241.987610,123.609978 
z"/>
<path fill="#9AB1CF" opacity="1.000000" stroke="none" 
	d="
M353.519806,216.781464 
	C353.467468,218.256012 353.105347,219.563354 352.087006,220.815323 
	C350.619751,220.505814 349.808685,220.251678 348.998840,219.998779 
	C349.000000,220.000000 349.002441,220.002029 349.002441,220.002029 
	C347.885406,219.004425 346.768341,218.006821 345.364410,216.752991 
	C347.868500,214.034592 350.474518,214.415176 353.519806,216.781464 
z"/>
<path fill="#9AB1CF" opacity="1.000000" stroke="none" 
	d="
M348.006927,224.017303 
	C347.107239,223.528336 346.207581,223.039368 345.161987,222.264282 
	C346.112823,221.320160 347.209564,220.662170 348.654358,220.003113 
	C349.002441,220.002029 349.000000,220.000000 348.967651,220.345062 
	C348.625854,221.799194 348.316406,222.908249 348.006927,224.017303 
z"/>
<path fill="#8DA8C9" opacity="1.000000" stroke="none" 
	d="
M348.371796,224.028381 
	C348.316406,222.908249 348.625854,221.799194 348.966492,220.343842 
	C349.808685,220.251678 350.619751,220.505814 351.727661,220.890533 
	C350.928558,222.027222 349.832611,223.033340 348.371796,224.028381 
z"/>
</svg>